HIERARCHY
ROOT Hips
{
  OFFSET 38.5011 98.7512 3.02672
  CHANNELS 6 Xposition Yposition Zposition Zrotation Xrotation Yrotation
  JOINT spine
  {
    OFFSET 0 8.30103 0.477351
    CHANNELS 3 Zrotation Xrotation Yrotation
    JOINT spine1
    {
      OFFSET 0 10.4565 0
      CHANNELS 3 Zrotation Xrotation Yrotation
      JOINT spine2
      {
        OFFSET 0 10.0192 0
        CHANNELS 3 Zrotation Xrotation Yrotation
        JOINT Neck
        {
          OFFSET 0 25.7235 1.22641
          CHANNELS 3 Zrotation Xrotation Yrotation
          JOINT Head
          {
            OFFSET 0 7.77175 0
            CHANNELS 3 Zrotation Xrotation Yrotation
            End Site
            {
              OFFSET 0 18.812 -6.20394
            }
          }
        }
        JOINT RightShoulder
        {
          OFFSET -4.2188 10.82 -0.587439
          CHANNELS 3 Zrotation Xrotation Yrotation
          JOINT RightArm
          {
            OFFSET 0 14.1914 0
            CHANNELS 3 Zrotation Xrotation Yrotation
            JOINT RightArmRoll
            {
              OFFSET 0 7.16408 0
              CHANNELS 3 Zrotation Xrotation Yrotation
              JOINT RightForeArm
              {
                OFFSET 0 20.8665 0
                CHANNELS 3 Zrotation Xrotation Yrotation
                JOINT RightForeArmRoll
                {
                  OFFSET 0 8.03921 0
                  CHANNELS 3 Zrotation Xrotation Yrotation
                  JOINT RightHand
                  {
                    OFFSET 0 16.133 0
                    CHANNELS 3 Zrotation Xrotation Yrotation
                    End Site
                    {
                      OFFSET 0 0 0
                    }
                  }
                }
              }
            }
          }
        }
        JOINT LeftShoulder
        {
          OFFSET 4.2188 10.82 -0.587439
          CHANNELS 3 Zrotation Xrotation Yrotation
          JOINT LeftArm
          {
            OFFSET 0 14.1914 0
            CHANNELS 3 Zrotation Xrotation Yrotation
            JOINT LeftArmRoll
            {
              OFFSET 0 7.16409 0
              CHANNELS 3 Zrotation Xrotation Yrotation
              JOINT LeftForeArm
              {
                OFFSET 0 20.8665 0
                CHANNELS 3 Zrotation Xrotation Yrotation
                JOINT LeftForeArmRoll
                {
                  OFFSET 0 8.03921 0
                  CHANNELS 3 Zrotation Xrotation Yrotation
                  JOINT LeftHand
                  {
                    OFFSET 0 16.133 0
                    CHANNELS 3 Zrotation Xrotation Yrotation
                    End Site
                    {
                      OFFSET 0 0 0
                    }
                  }
                }
              }
            }
          }
        }
      }
    }
  }
  JOINT RightUpLeg
  {
    OFFSET -7.35773 -1.34921 -1.13181
    CHANNELS 3 Zrotation Xrotation Yrotation
    JOINT RightUpLegRoll
    {
      OFFSET 0 18.9168 0
      CHANNELS 3 Zrotation Xrotation Yrotation
      JOINT RightLeg
      {
        OFFSET 0 -23.4256 0
        CHANNELS 3 Zrotation Xrotation Yrotation
        JOINT RightLegRoll
        {
          OFFSET 0 23.5023 0
          CHANNELS 3 Zrotation Xrotation Yrotation
          JOINT RightFoot
          {
            OFFSET 0 19.5617 0
            CHANNELS 3 Zrotation Xrotation Yrotation
            JOINT RightToeBase
            {
              OFFSET 0 16.3526 0
              CHANNELS 3 Zrotation Xrotation Yrotation
              End Site
              {
                OFFSET 0.00693125 7.91944 -0.912837
              }
            }
          }
        }
      }
    }
  }
  JOINT LeftUpLeg
  {
    OFFSET 7.35773 -1.34921 -1.13181
    CHANNELS 3 Zrotation Xrotation Yrotation
    JOINT LeftUpLegRoll
    {
      OFFSET 0 18.9169 0
      CHANNELS 3 Zrotation Xrotation Yrotation
      JOINT LeftLeg
      {
        OFFSET 0 23.4255 0
        CHANNELS 3 Zrotation Xrotation Yrotation
        JOINT LeftLegRoll
        {
          OFFSET 0 23.7195 0
          CHANNELS 3 Zrotation Xrotation Yrotation
          JOINT LeftFoot
          {
            OFFSET 0 19.3444 0
            CHANNELS 3 Zrotation Xrotation Yrotation
            JOINT LeftToeBase
            {
              OFFSET 0 16.3526 0
              CHANNELS 3 Zrotation Xrotation Yrotation
              End Site
              {
                OFFSET -0.0310629 7.91944 -0.912837
              }
            }
          }
        }
      }
    }
  }
}
MOTION
Frames: 13
Frame Time: 0.00208333
38.6846 98.9307 4.09445 0.852746 -4.10076 0.619353 0.0132406 -1.31557 0.124122 0.0236619 1.37043 0.257026 0.0206011 3.01549 0.256779 -0.30958 24.2741 -0.804942 -1.12843 -8.63388 -1.11087 76.0657 -0.666526 -2.27854 93.9164 22.3649 20.8251 -1.934e-005 -1.12017e-005 -1.64823e-006 13.3596 0.10769 -0.186697 -6.75091e-008 3.33999e-006 -3.03832 8.02887 -4.95142 0.697676 -67.9073 4.17793 -1.02382 -100.1 11.1988 -16.5743 -7.56263e-006 -1.21042e-006 -2.70081e-007 -10.3479 4.2126 0.926759 -7.20887e-007 5.87691e-007 3.01055 -8.02893 -4.95149 -0.697701 175.357 -2.74787 1.69293 -180 7.01539e-015 178.888 175.812 4.62475 179.769 4.21872e-006 1.25001e-006 0.055712 -18.5571 67.8588 19.4261 8.13649 25.2327 -3.48773 -176.357 -3.0825 1.47056 4.54188e-006 -4.6773e-006 -1.20896 -2.80955 -8.55976 0.498165 1.00787e-006 -5.43582e-006 -0.109088 18.6986 67.8908 -19.4371 -8.13649 25.2327 3.48774 
38.683 98.9229 4.10668 0.854312 -4.10293 0.621864 0.0122293 -1.3155 0.12415 0.0210683 1.36916 0.256733 0.0180144 3.01422 0.256535 -0.302674 24.279 -0.810138 -1.12657 -8.62316 -1.11315 76.091 -0.662883 -2.27953 93.8751 22.3385 20.8003 -1.934e-005 -1.12017e-005 -1.64823e-006 13.4085 0.107585 -0.186295 -6.75091e-008 3.33999e-006 -3.03837 8.02887 -4.95142 0.697676 -67.9147 4.1795 -1.02344 -100.082 11.1984 -16.6457 -7.56263e-006 -1.21042e-006 -2.70081e-007 -10.301 4.15731 0.921735 -7.20887e-007 5.87691e-007 3.01055 -8.02893 -4.95149 -0.697701 175.357 -2.7518 1.69236 -180 7.01539e-015 178.888 175.814 4.62504 179.769 4.21872e-006 1.25001e-006 0.055712 -18.5571 67.8589 19.4262 8.13649 25.2327 -3.48773 -176.356 -3.11848 1.45853 4.54188e-006 -4.6773e-006 -1.20896 -2.82393 -8.50712 0.496502 1.00787e-006 -5.43582e-006 -0.108014 18.6705 67.8569 -19.4087 -8.13649 25.2327 3.48774 
38.6869 98.8719 4.10438 0.855935 -4.10506 0.624509 0.0111871 -1.31542 0.124203 0.01834 1.36782 0.256467 0.0152929 3.01288 0.256322 -0.295198 24.2837 -0.815593 -1.12491 -8.61196 -1.11551 76.1176 -0.658988 -2.28054 93.8325 22.3128 20.779 -1.934e-005 -1.12017e-005 -1.64823e-006 13.4548 0.107442 -0.186588 -6.75091e-008 3.33999e-006 -3.03849 8.02887 -4.95142 0.697676 -67.922 4.18082 -1.02294 -100.064 11.2004 -16.7179 -7.56263e-006 -1.21042e-006 -2.70081e-007 -10.2532 4.09591 0.916068 -7.20887e-007 5.87691e-007 3.01055 -8.02893 -4.95149 -0.697701 175.357 -2.75575 1.69171 -180 7.01539e-015 178.888 175.816 4.62528 179.769 4.21872e-006 1.25001e-006 0.055712 -18.5572 67.8589 19.4262 8.13649 25.2327 -3.48773 -176.355 -3.15649 1.44578 4.54188e-006 -4.6773e-006 -1.20896 -2.83919 -8.45111 0.494737 1.00787e-006 -5.43582e-006 -0.106874 18.6406 67.8209 -19.3787 -8.13649 25.2327 3.48774 
38.6869 98.8922 4.09958 0.857598 -4.10717 0.627247 0.0101233 -1.31534 0.124273 0.0155175 1.36642 0.256221 0.0124771 3.01148 0.256129 -0.287321 24.2881 -0.82123 -1.12337 -8.60043 -1.11793 76.1451 -0.654917 -2.28158 93.7888 22.2878 20.7601 -1.934e-005 -1.12017e-005 -1.64823e-006 13.4993 0.107271 -0.187366 -6.75091e-008 3.33999e-006 -3.03866 8.02887 -4.95142 0.697676 -67.9292 4.18196 -1.02236 -100.046 11.2042 -16.7905 -7.56263e-006 -1.21042e-006 -2.70081e-007 -10.2049 4.03023 0.909952 -7.20887e-007 5.87691e-007 3.01055 -8.02893 -4.95149 -0.697701 175.357 -2.75973 1.691 -180 7.01539e-015 178.888 175.817 4.62551 179.769 4.21872e-006 1.25001e-006 0.055712 -18.5572 67.859 19.4263 8.13649 25.2327 -3.48773 -176.354 -3.19591 1.43253 4.54188e-006 -4.6773e-006 -1.20895 -2.85508 -8.39274 0.492902 1.00787e-006 -5.43582e-006 -0.105687 18.6097 67.7834 -19.3475 -8.13649 25.2327 3.48774 
38.6836 98.8716 4.10202 0.859284 -4.10927 0.630039 0.00904715 -1.31525 0.124352 0.0126412 1.36499 0.255986 0.00960744 3.01005 0.25595 -0.279216 24.2925 -0.826969 -1.12192 -8.58871 -1.12037 76.1732 -0.650746 -2.28262 93.7445 22.2631 20.7427 -1.934e-005 -1.12017e-005 -1.64823e-006 13.5426 0.107084 -0.188423 -6.75091e-008 3.33999e-006 -3.03887 8.02887 -4.95142 0.697676 -67.9364 4.18299 -1.02174 -100.027 11.2089 -16.8635 -7.56263e-006 -1.21042e-006 -2.70081e-007 -10.1562 3.96211 0.903581 -7.20887e-007 5.87691e-007 3.01055 -8.02893 -4.95149 -0.697701 175.357 -2.76372 1.69027 -180 7.01539e-015 178.888 175.819 4.62571 179.769 4.21872e-006 1.25001e-006 0.055712 -18.5573 67.8591 19.4264 8.13649 25.2327 -3.48773 -176.354 -3.23615 1.41899 4.54188e-006 -4.6773e-006 -1.20894 -2.87133 -8.33303 0.491026 1.00787e-006 -5.43582e-006 -0.104474 18.5781 67.745 -19.3158 -8.13649 25.2327 3.48774 
38.6924 98.8758 4.11247 0.860976 -4.11136 0.632845 0.00796791 -1.31516 0.124434 0.00975137 1.36356 0.255753 0.0067243 3.00862 0.255773 -0.271053 24.2968 -0.832735 -1.12048 -8.57694 -1.12283 76.2013 -0.646549 -2.28366 93.7001 22.2385 20.7256 -1.934e-005 -1.12017e-005 -1.64823e-006 13.5857 0.106894 -0.189549 -6.75091e-008 3.33999e-006 -3.03909 8.02887 -4.95142 0.697676 -67.9436 4.184 -1.0211 -100.009 11.2138 -16.9365 -7.56263e-006 -1.21042e-006 -2.70081e-007 -10.1075 3.89337 0.897147 -7.20887e-007 5.87691e-007 3.01055 -8.02893 -4.95149 -0.697701 175.356 -2.76771 1.68952 -180 7.01539e-015 178.888 175.821 4.62592 179.769 4.21872e-006 1.25001e-006 0.055712 -18.5574 67.8592 19.4265 8.13649 25.2327 -3.48773 -176.353 -3.2766 1.40537 4.54188e-006 -4.6773e-006 -1.20893 -2.88766 -8.27298 0.489142 1.00787e-006 -5.43582e-006 -0.103254 18.5464 67.7064 -19.2839 -8.13649 25.2327 3.48774 
38.6912 98.8688 4.11245 0.862656 -4.11346 0.635624 0.00689485 -1.31507 0.124511 0.00688846 1.36214 0.255515 0.0038681 3.0072 0.25559 -0.263002 24.3011 -0.83845 -1.119 -8.56526 -1.12527 76.2293 -0.642403 -2.2847 93.6559 22.2137 20.7078 -1.934e-005 -1.12017e-005 -1.64823e-006 13.6293 0.106711 -0.190536 -6.75091e-008 3.33999e-006 -3.03929 8.02887 -4.95142 0.697676 -67.9509 4.18506 -1.02049 -99.9903 11.2182 -17.0093 -7.56263e-006 -1.21042e-006 -2.70081e-007 -10.059 3.82586 0.890845 -7.20887e-007 5.87691e-007 3.01055 -8.02893 -4.95149 -0.697701 175.356 -2.7717 1.6888 -180 7.01539e-015 178.888 175.822 4.62612 179.768 4.21872e-006 1.25001e-006 0.055712 -18.5574 67.8593 19.4265 8.13649 25.2327 -3.48773 -176.352 -3.31663 1.3919 4.54188e-006 -4.6773e-006 -1.20893 -2.9038 -8.2136 0.487279 1.00787e-006 -5.43582e-006 -0.102048 18.5153 67.6683 -19.2526 -8.13649 25.2327 3.48774 
38.6851 98.865 4.11664 0.864309 -4.11557 0.638336 0.00583723 -1.31499 0.124576 0.00409284 1.36075 0.255263 0.00107922 3.00581 0.255391 -0.255236 24.3057 -0.844036 -1.11743 -8.55382 -1.12767 76.2565 -0.638382 -2.28573 93.6124 22.1884 20.6884 -1.934e-005 -1.12017e-005 -1.64823e-006 13.6743 0.106548 -0.191176 -6.75091e-008 3.33999e-006 -3.03945 8.02887 -4.95142 0.697676 -67.9581 4.18625 -1.01993 -99.972 11.2213 -17.0818 -7.56263e-006 -1.21042e-006 -2.70081e-007 -10.0109 3.7614 0.884867 -7.20887e-007 5.87691e-007 3.01055 -8.02893 -4.95149 -0.697701 175.356 -2.77567 1.68811 -180 7.01539e-015 178.888 175.824 4.62637 179.768 4.21872e-006 1.25001e-006 0.055712 -18.5575 67.8593 19.4266 8.13649 25.2327 -3.48773 -176.351 -3.35566 1.37879 4.54188e-006 -4.6773e-006 -1.20892 -2.9195 -8.15591 0.485468 1.00787e-006 -5.43582e-006 -0.100874 18.4851 67.6312 -19.2222 -8.13649 25.2327 3.48774 
38.6876 98.8683 4.11917 0.865916 -4.11771 0.64094 0.0048043 -1.31491 0.124621 0.0014049 1.35943 0.254989 -0.00160192 3.00449 0.255169 -0.247924 24.3104 -0.849416 -1.11569 -8.54277 -1.13 76.2827 -0.634563 -2.28674 93.5701 22.1625 20.6661 -1.934e-005 -1.12017e-005 -1.64823e-006 13.7214 0.106416 -0.19126 -6.75091e-008 3.33999e-006 -3.03954 8.02887 -4.95142 0.697676 -67.9655 4.18764 -1.01947 -99.9538 11.2225 -17.1538 -7.56263e-006 -1.21042e-006 -2.70081e-007 -9.96342 3.70183 0.879405 -7.20887e-007 5.87691e-007 3.01055 -8.02893 -4.95149 -0.697701 175.356 -2.77962 1.68748 -180 7.01539e-015 178.888 175.826 4.62663 179.768 4.21872e-006 1.25001e-006 0.055712 -18.5575 67.8594 19.4266 8.13649 25.2327 -3.48773 -176.351 -3.39305 1.36626 4.54188e-006 -4.6773e-006 -1.20892 -2.93447 -8.10091 0.48374 1.00787e-006 -5.43582e-006 -0.0997538 18.4564 67.5958 -19.1933 -8.13649 25.2327 3.48774 
38.7016 98.8588 4.08854 0.867461 -4.11989 0.643398 0.00380534 -1.31484 0.12464 -0.00113499 1.3582 0.254685 -0.00413491 3.00326 0.254913 -0.241239 24.3155 -0.854512 -1.11375 -8.53224 -1.13225 76.3075 -0.631021 -2.28772 93.5292 22.1356 20.64 -1.934e-005 -1.12017e-005 -1.64823e-006 13.7714 0.106327 -0.190581 -6.75091e-008 3.33999e-006 -3.03955 8.02887 -4.95142 0.697676 -67.9729 4.18932 -1.01913 -99.9359 11.2209 -17.2249 -7.56263e-006 -1.21042e-006 -2.70081e-007 -9.91689 3.64898 0.874653 -7.20887e-007 5.87691e-007 3.01055 -8.02893 -4.95149 -0.697701 175.356 -2.78354 1.68694 -180 7.01539e-015 178.888 175.827 4.62693 179.768 4.21872e-006 1.25001e-006 0.055712 -18.5576 67.8594 19.4267 8.13649 25.2327 -3.48773 -176.35 -3.42822 1.35452 4.54188e-006 -4.6773e-006 -1.20891 -2.94846 -8.04962 0.482126 1.00787e-006 -5.43582e-006 -0.0987064 18.4297 67.5627 -19.1664 -8.13649 25.2327 3.48774 
38.7007 98.8662 4.09797 0.868927 -4.12212 0.645667 0.00284961 -1.31478 0.124624 -0.00348644 1.35708 0.254342 -0.00647936 3.00214 0.254614 -0.235349 24.3209 -0.859248 -1.11154 -8.52238 -1.13438 76.3305 -0.627831 -2.28866 93.4903 22.1075 20.609 -1.934e-005 -1.12017e-005 -1.64823e-006 13.8252 0.106292 -0.188929 -6.75091e-008 3.33999e-006 -3.03945 8.02887 -4.95142 0.697676 -67.9805 4.19134 -1.01895 -99.9184 11.2159 -17.2951 -7.56263e-006 -1.21042e-006 -2.70081e-007 -9.87152 3.60469 0.870802 -7.20887e-007 5.87691e-007 3.01055 -8.02893 -4.95149 -0.697701 175.355 -2.78742 1.6865 -180 7.01539e-015 178.888 175.828 4.62728 179.768 4.21872e-006 1.25001e-006 0.055712 -18.5576 67.8594 19.4267 8.13649 25.2327 -3.48773 -176.35 -3.46054 1.34378 4.54188e-006 -4.6773e-006 -1.20891 -2.96119 -8.00304 0.480656 1.00787e-006 -5.43582e-006 -0.0977518 18.4055 67.5327 -19.1421 -8.13649 25.2327 3.48774 
38.6906 98.8647 4.12381 0.870297 -4.12441 0.647708 0.00194637 -1.31474 0.124567 -0.00560907 1.35609 0.253952 -0.00859485 3.00114 0.254264 -0.230428 24.3269 -0.863545 -1.109 -8.51333 -1.13637 76.3512 -0.625068 -2.28957 93.4537 22.0779 20.5722 -1.934e-005 -1.12017e-005 -1.64823e-006 13.8834 0.106324 -0.186097 -6.75091e-008 3.33999e-006 -3.03921 8.02887 -4.95142 0.697676 -67.9882 4.1938 -1.01897 -99.9012 11.2067 -17.364 -7.56263e-006 -1.21042e-006 -2.70081e-007 -9.82754 3.5708 0.868045 -7.20887e-007 5.87691e-007 3.01055 -8.02893 -4.95149 -0.697701 175.355 -2.79125 1.6862 -180 7.01539e-015 178.888 175.83 4.62771 179.768 4.21872e-006 1.25001e-006 0.055712 -18.5575 67.8594 19.4267 8.13649 25.2327 -3.48773 -176.349 -3.48942 1.33428 4.54188e-006 -4.6773e-006 -1.20891 -2.9724 -7.96219 0.47936 1.00787e-006 -5.43582e-006 -0.09691 18.3843 67.5063 -19.1208 -8.13649 25.2327 3.48774 
38.6921 98.8603 4.11555 0.871554 -4.12677 0.649482 0.00110489 -1.31472 0.124461 -0.0074625 1.35525 0.253506 -0.010441 3.00031 0.253853 -0.226644 24.3335 -0.867326 -1.10607 -8.50523 -1.13821 76.3694 -0.62281 -2.29042 93.4199 22.0465 20.5284 -1.934e-005 -1.12017e-005 -1.64823e-006 13.947 0.106433 -0.181876 -6.75091e-008 3.33999e-006 -3.03881 8.02887 -4.95142 0.697676 -67.9961 4.19677 -1.01922 -99.8846 11.1926 -17.4315 -7.56263e-006 -1.21042e-006 -2.70081e-007 -9.7852 3.54912 0.866574 -7.20887e-007 5.87691e-007 3.01055 -8.02893 -4.95149 -0.697701 175.355 -2.79503 1.68606 -180 7.01539e-015 178.888 175.83 4.62821 179.768 4.21872e-006 1.25001e-006 0.055712 -18.5575 67.8593 19.4266 8.13649 25.2327 -3.48773 -176.349 -3.51423 1.32621 4.54188e-006 -4.6773e-006 -1.20892 -2.98182 -7.92807 0.478269 1.00787e-006 -5.43582e-006 -0.0962008 18.3666 67.4843 -19.1031 -8.13649 25.2327 3.48774 
